# Blender v2.91.0 OBJ File: 'rocks_old.blend'
# www.blender.org
mtllib big_rock_033.mtl
o Cube.001
v 10.552851 2.954964 -4.740830
v 11.154988 2.667596 -4.027677
v 10.596433 -1.149725 -4.408826
v 10.207097 2.483225 0.448190
v 11.328308 -0.462885 -0.500078
v 6.511121 2.934129 -4.444935
v 5.766919 -0.610155 -3.740351
v 5.602903 1.911221 -0.526918
v 8.069713 -0.552983 -5.109203
v 7.840683 3.201105 1.541127
v 6.610291 4.424904 -1.261097
v 9.678336 4.265261 -4.207897
v 5.437706 2.496624 -1.202963
v 8.801983 0.940613 1.721959
v 7.710430 1.612236 2.189152
v 8.130661 -0.201841 1.691754
v 7.860737 4.812654 -0.807472
v 10.360887 3.831242 -3.844361
v 5.734993 -1.011186 -0.380720
v 5.587796 -1.055298 -2.879976
v 5.268239 -1.034559 -1.246148
v 10.238877 0.755591 -4.614659
v 5.603104 0.555976 -0.733677
v 10.380621 0.478118 0.814463
v 10.647020 2.732648 -0.290715
v 7.142493 0.253695 -5.354622
v 6.299087 1.069971 -4.436941
v 7.865920 4.649048 -0.256287
v 6.910307 4.626007 -0.971915
v 7.309023 4.369898 0.377093
v 8.146471 4.153341 0.431127
v 7.484556 3.888944 0.875417
v 10.054757 3.678342 -0.935360
v 7.767052 -2.019017 0.573611
v 7.909472 -0.996911 1.324145
v 6.088094 3.831450 -0.833062
v 5.740143 3.288482 -1.029606
v 9.094393 4.488876 -4.323390
v 8.823502 4.199903 -4.620537
v 6.857289 3.308367 -4.447340
v 8.407235 3.589273 -5.044977
v 7.799345 2.465175 -5.374450
v 10.402634 -2.054636 -2.519132
v 11.673962 -1.344270 -2.995865
vt 0.752245 0.534899
vt 0.480252 0.555047
vt 0.536305 0.550183
vt 0.556911 0.588811
vt 0.459243 0.383568
vt 0.440679 0.398203
vt 0.483423 0.313316
vt 0.499116 0.365912
vt 0.544224 0.377737
vt 0.559301 0.375068
vt 0.000000 0.000000
vt 0.508230 0.225177
vt 0.526679 0.199733
vt 0.583177 0.178071
vt 0.436516 0.685881
vt 0.724629 0.579083
vt 0.440685 0.567636
vt 0.441266 0.587503
vt 0.475156 0.966058
vt 0.572332 0.181847
vt 0.489945 0.049306
vt 0.560641 0.042504
vt 0.568120 0.192470
vt 0.802496 0.598378
vt 0.821472 0.701277
vt 0.739698 0.679203
vt 0.698355 0.597318
vt 0.553396 0.320344
vt 0.498419 0.243646
vt 0.513011 0.208865
vt 0.826851 0.547983
vt 0.503278 0.032002
vt 0.523602 0.190140
vt 0.522943 0.174078
vt 0.306318 0.578150
vt 0.000000 0.000000
vt 0.000000 0.000000
vt 0.000000 0.000000
vt 0.478693 0.059526
vt 0.690679 0.675894
vt 0.389344 0.851810
vt 0.446692 0.261288
vt 0.557696 0.271963
vt 0.000000 0.000000
vt 0.459046 0.057723
vt 0.604452 0.852325
vt 0.584772 0.875393
vn -0.9816 -0.1197 -0.1490
vn 0.4322 -0.3681 0.8232
vn 0.4318 0.0766 0.8987
vn -0.7432 0.3012 0.5974
vn -0.7513 -0.0353 -0.6591
vn -0.5638 -0.5801 0.5879
vn -0.5413 0.7795 -0.3151
vn -0.6580 0.0202 0.7527
vn -0.6375 0.7114 0.2958
vn -0.7453 -0.2373 0.6231
vn 0.2405 -0.0735 -0.9679
vn -0.8800 0.0326 0.4738
vn 0.4951 0.2389 0.8354
vn -0.7586 0.1808 0.6260
vn 0.4256 0.6255 0.6539
vn -0.4046 0.4334 -0.8053
vn -0.6061 0.1239 -0.7857
vn 0.1668 0.7916 0.5879
vn -0.2127 0.9436 0.2536
vn 0.6876 0.5874 -0.4269
vn -0.3666 0.6864 -0.6280
vn -0.4107 0.8556 -0.3152
vn 0.2543 -0.0566 -0.9655
vn -0.7365 0.3431 0.5829
vn -0.7486 0.6176 -0.2411
vn -0.9380 0.1993 -0.2837
vn -0.9612 0.2310 -0.1507
vn -0.9613 0.2289 -0.1535
vn 0.8420 0.1540 0.5171
vn 0.5305 0.6695 0.5199
vn 0.8198 0.5624 0.1079
vn 0.2315 0.3473 -0.9087
vn 0.3766 0.3873 -0.8415
vn 0.0383 0.9962 -0.0783
vn 0.4696 0.8768 0.1032
vn 0.4663 0.8210 0.3294
vn 0.4589 -0.5477 0.6996
vn 0.6199 -0.0567 -0.7827
vn 0.4906 -0.7795 0.3896
vn 0.9786 0.1752 0.1074
vn 0.7903 -0.0547 -0.6102
vn -0.2238 -0.9661 -0.1284
vn -0.2274 -0.9653 -0.1287
vn -0.3367 -0.7284 -0.5968
vn -0.3353 -0.7307 -0.5947
vn 0.3397 -0.8614 -0.3777
vn -0.1391 -0.9059 -0.3999
vn -0.1402 -0.9072 -0.3967
usemtl Material.001
s off
f 27/1/1 23/2/1 8/3/1 13/4/1
f 16/5/2 35/6/2 24/7/2 14/8/2
f 15/9/3 16/5/3 14/8/3 10/10/3
f 37/11/4 32/12/4 30/13/4 36/14/4
f 7/15/5 27/1/5 26/16/5
f 35/6/6 19/17/6 21/18/6 34/19/6
f 36/14/7 11/20/7 39/21/7 40/22/7
f 35/6/8 16/5/8 23/2/8 19/17/8
f 36/14/9 30/13/9 29/23/9 11/20/9
f 23/2/10 16/5/10 15/9/10 8/3/10
f 42/24/11 1/25/11 22/26/11 9/27/11 26/16/11
f 19/17/12 23/2/12 21/18/12
f 14/8/13 24/7/13 4/28/13 10/10/13
f 32/12/14 37/11/14 13/4/14 10/29/14
f 32/12/15 10/10/15 4/28/15 31/30/15
f 6/31/16 40/22/16 41/32/16 42/24/16
f 27/1/17 6/31/17 42/24/17 26/16/17
f 30/13/18 32/12/18 31/30/18 28/33/18
f 29/23/19 30/13/19 28/33/19 17/34/19
f 2/35/20 1/36/20 12/37/20 18/38/20
f 40/22/21 39/21/21 41/32/21
f 11/20/22 29/23/22 38/39/22 39/21/22
f 3/40/23 9/27/23 22/26/23
f 8/3/24 15/9/24 10/10/24 13/4/24
f 6/31/25 37/11/25 36/14/25 40/22/25
f 13/4/26 37/11/26 6/31/26 27/1/26
f 23/2/27 27/1/27 7/15/27 20/41/28 21/18/27
f 5/42/29 25/43/29 4/28/29 24/7/29
f 4/28/30 25/43/30 33/44/30 31/30/30
f 25/43/31 2/35/31 18/38/31 33/44/31
f 41/32/32 12/37/32 1/36/32 42/24/32
f 38/39/33 12/45/33 41/32/33 39/21/33
f 12/45/34 38/39/34 29/23/34 17/34/34
f 17/34/35 33/44/35 18/38/35 12/37/35
f 33/44/36 17/34/36 28/33/36 31/30/36
f 24/7/37 35/6/37 34/19/37 5/42/37
f 1/25/38 2/35/38 3/40/38 22/26/38
f 44/46/39 5/42/39 34/19/39 43/47/39
f 25/43/40 5/42/40 44/46/40 2/35/40
f 44/46/41 3/40/41 2/35/41
f 21/18/42 20/41/43 43/47/42 34/19/42
f 9/27/44 20/41/45 7/15/44 26/16/44
f 43/47/46 3/40/46 44/46/46
f 9/27/47 3/40/47 43/47/47 20/41/48
