# Blender v2.91.0 OBJ File: 'rocks_old.blend'
# www.blender.org
mtllib medium_rock_01.mtl
o Cube.004
v -12.274180 -0.000000 -1.360645
v -12.274180 -0.135679 1.360645
v -13.832556 0.000000 -1.873900
v -11.686337 -0.081156 -0.000000
v -12.472082 0.353252 -1.187854
v -12.472081 0.353252 1.187854
v -13.832556 0.527020 -1.430150
v -11.964476 0.288417 -0.000000
v -13.832556 0.527019 1.430151
v -15.358368 -0.058124 -1.332214
v -15.751301 -0.235879 0.000000
v -15.229884 -0.000000 -1.413686
v -14.013738 0.550161 1.362923
v -14.013738 0.550161 -1.362923
v -15.136984 -0.453295 -1.138919
v -12.470367 -0.350192 -1.189351
v -12.566483 -0.347949 1.190448
v -13.832556 -0.403202 -1.534404
v -12.005656 -0.331120 -0.000000
v -15.138136 -0.451238 1.139925
v -15.528059 -0.467372 0.000000
v -13.033220 -0.081156 1.610637
v -13.832556 0.443610 1.500381
v -15.283281 -0.192153 1.266654
v -14.567955 0.299443 1.386057
v -15.381211 -0.068458 1.254765
v -14.488270 -0.425918 1.337468
v -13.004302 -0.368526 1.326397
v -14.402987 -0.373227 1.395252
v -13.346619 -0.187282 1.558980
vt 0.132239 0.323120
vt 0.079115 0.329982
vt 0.075263 0.143385
vt 0.131742 0.161517
vt 0.098991 0.115968
vt 0.254164 0.058414
vt 0.260559 0.098422
vt 0.422255 0.072008
vt 0.411872 0.123425
vt 0.244716 0.003227
vt 0.413533 0.000076
vt 0.003095 0.342825
vt 0.019033 0.163855
vt 0.087491 0.060219
vt 0.129293 0.491087
vt 0.000076 0.368821
vt 0.244854 0.957612
vt 0.175978 0.769925
vt 0.180864 0.742417
vt 0.566046 0.673575
vt 0.580159 0.697687
vt 0.580559 0.897613
vt 0.425630 0.999924
vt 0.556326 0.240093
vt 0.569530 0.237281
vt 0.580559 0.260281
vt 0.557374 0.337482
vt 0.329846 0.472622
vt 0.334378 0.505179
vt 0.180558 0.532867
vt 0.194795 0.466275
vt 0.144431 0.505926
vt 0.471032 0.326459
vt 0.495530 0.432219
vt 0.457665 0.417689
vt 0.463740 0.337615
vt 0.167697 0.549892
vt 0.483972 0.474321
vt 0.553953 0.587035
vt 0.481956 0.453296
vt 0.475612 0.201663
vt 0.436329 0.171676
vt 0.440717 0.079054
vt 0.515657 0.074965
vt 0.479594 0.164858
vt 0.511728 0.444670
vn 0.2381 -0.5867 -0.7740
vn 0.6807 -0.6695 -0.2973
vn 0.5472 -0.8065 0.2238
vn 0.7924 0.5075 0.3385
vn 0.2347 0.5925 -0.7706
vn 0.7639 0.5737 -0.2955
vn -0.2414 0.6165 -0.7494
vn 0.1267 0.9919 0.0000
vn -0.2310 0.5977 0.7677
vn -0.7393 -0.6115 -0.2820
vn -0.2369 -0.5810 -0.7787
vn -0.2281 -0.5279 0.8181
vn -0.4122 0.9111 0.0000
vn -0.7389 -0.6121 0.2818
vn 0.0343 -0.7632 0.6453
vn 0.2509 0.5017 0.8279
vn -0.1497 -0.0235 0.9885
vn 0.1787 -0.7100 0.6812
vn 0.0390 -0.9992 0.0012
usemtl None
s 1
f 18/1/1 3/2/1 1/3/1 16/4/1
f 16/4/2 1/5/2 4/6/2 19/7/2
f 19/7/3 4/6/3 2/8/3 17/9/3
f 4/6/4 8/10/4 6/11/4 2/8/4
f 3/2/5 7/12/5 5/13/5 1/3/5
f 1/5/6 5/14/6 8/10/6 4/6/6
f 12/15/7 14/16/7 7/12/7 3/2/7
f 5/17/8 7/18/8 14/19/8 13/20/8 9/21/8 6/22/8 8/23/8
f 23/24/9 9/25/9 13/26/9 25/27/9
f 21/28/10 11/29/10 10/30/10 15/31/10
f 15/31/11 10/32/11 12/15/11 3/2/11 18/1/11
f 29/33/12 24/34/12 20/35/12 27/36/12
f 14/19/13 12/37/13 10/30/13 11/29/13 26/38/13 25/39/13 13/20/13
f 20/35/14 24/40/14 26/38/14 11/29/14 21/28/14
f 30/41/15 29/33/15 27/36/15 28/42/15
f 2/43/16 6/44/16 9/25/16 23/24/16 22/45/16
f 22/45/17 23/24/17 25/27/17 26/46/17 24/34/17 29/33/17 30/41/17
f 17/9/18 2/43/18 22/45/18 30/41/18 28/42/18
f 17/9/19 28/42/19 27/36/19 20/35/19 21/28/19 15/31/19 18/1/19 16/4/19 19/7/19
