# Blender v2.91.0 OBJ File: 'rocks_old.blend'
# www.blender.org
mtllib small_rock_06.mtl
o Cube.005
v -18.823471 0.584221 0.386241
v -18.769941 0.605611 -0.405185
v -19.265495 0.366759 0.022398
v -17.519690 -0.071987 -0.896598
v -16.913889 0.044180 -0.513449
v -17.495361 0.340652 -0.811954
v -17.412319 0.402029 -0.717727
v -17.019567 0.076137 -0.601146
v -17.383133 0.088169 -0.863745
v -18.586313 0.340652 -0.811954
v -18.552223 -0.071987 -0.896598
v -18.639206 0.378250 -0.754233
v -19.263138 0.152189 -0.155131
v -18.875109 0.077722 0.760272
v -18.938597 -0.467761 0.267890
v -18.949610 0.149948 0.706936
v -19.263197 0.157538 0.264203
v -16.871925 -0.143125 0.560923
v -17.132933 0.077722 0.760272
v -18.995701 -0.283742 -0.477008
v -19.259438 -0.184562 -0.199981
v -18.956064 -0.468309 -0.111293
v -19.057690 -0.471500 0.094876
v -19.258665 -0.254781 -0.032892
v -19.020210 0.591816 0.105246
v -19.188908 0.470199 0.010438
v -18.953453 0.599521 -0.179839
v -16.831711 -0.322615 0.398906
v -16.838682 -0.291500 -0.326033
v -16.983393 -0.312356 -0.420311
v -17.416515 -0.419966 0.311032
v -17.576336 -0.424984 -0.197140
v -17.961367 0.584221 0.386241
v -17.934320 0.605611 -0.405185
v -16.980709 0.342425 -0.287877
v -17.383696 0.463997 -0.622593
v -17.164495 0.361892 0.550423
v -16.975624 0.319727 0.299267
vt 0.438486 0.510055
vt 0.314794 0.558792
vt 0.298736 0.458982
vt 0.365508 0.403224
vt 0.439596 0.479495
vt 0.337747 0.176549
vt 0.286620 0.211890
vt 0.255132 0.197526
vt 0.271975 0.158572
vt 0.294147 0.153205
vt 0.332187 0.028711
vt 0.282113 0.061416
vt 0.270844 0.021594
vt 0.171626 0.564496
vt 0.216707 0.535288
vt 0.272143 0.567390
vt 0.190499 0.617457
vt 0.505006 0.388233
vt 0.542033 0.367552
vt 0.558640 0.383759
vt 0.509376 0.458130
vt 0.480557 0.621615
vt 0.567009 0.668881
vt 0.570655 0.780343
vt 0.438372 0.840060
vt 0.351859 0.712017
vt 0.380567 0.661517
vt 0.478765 0.370948
vt 0.445794 0.197014
vt 0.524717 0.180146
vt 0.131751 0.105363
vt 0.147639 0.089896
vt 0.237292 0.099787
vt 0.219251 0.214877
vt 0.276729 0.080299
vt 0.296950 0.110328
vt 0.463093 0.107515
vt 0.450598 0.093558
vt 0.387585 0.031037
vt 0.208764 0.000079
vt 0.504802 0.482493
vt 0.100570 0.273272
vt 0.576963 0.392839
vt 0.573573 0.493322
vt 0.495508 0.553643
vt 0.301401 0.601657
vt 0.536977 0.168838
vt 0.614387 0.136625
vt 0.628847 0.296445
vt 0.063981 0.471331
vt 0.000079 0.328497
vt 0.080172 0.267583
vt 0.498407 0.986156
vt 0.628847 0.921950
vt 0.603424 0.968747
vt 0.559744 0.999921
vn 0.1705 -0.9844 -0.0439
vn -0.6005 -0.7381 -0.3074
vn -0.5423 0.8337 -0.1045
vn 0.7501 0.4447 0.4894
vn 0.5466 0.3945 -0.7387
vn 0.2619 0.9645 0.0350
vn -0.0000 0.2009 -0.9796
vn -0.7550 -0.3888 0.5281
vn -0.9999 -0.0110 0.0000
vn -0.7061 0.0859 -0.7029
vn -0.6975 0.4522 -0.5558
vn -0.6741 0.5554 0.4870
vn 0.0314 -0.9995 -0.0000
vn -0.0000 -0.8928 -0.4505
vn 0.5500 -0.3098 -0.7756
vn 0.0000 -0.6701 0.7423
vn 0.6240 0.5555 -0.5496
vn 0.9758 0.2186 0.0000
vn -0.0000 0.8379 -0.5458
vn 0.0000 0.5940 0.8044
vn 0.0000 0.9996 0.0270
usemtl None
s 1
f 29/1/1 28/2/1 31/3/1 32/4/1 30/5/1
f 20/6/2 22/7/2 23/8/2 24/9/2 21/10/2
f 27/11/3 26/12/3 25/13/3
f 37/14/4 19/15/4 18/16/4 38/17/4
f 9/18/5 6/19/5 7/20/5 8/21/5
f 35/22/6 36/23/6 34/24/6 33/25/6 37/26/6 38/27/6
f 6/19/7 9/18/7 4/28/7 11/29/7 10/30/7
f 14/31/8 16/32/8 17/33/8 24/9/8 23/8/8 15/34/8
f 3/35/9 13/36/9 21/10/9 24/9/9 17/33/9
f 10/37/10 11/29/10 20/6/10 21/10/10 13/36/10 12/38/10
f 3/35/11 26/12/11 27/11/11 2/39/11 12/38/11 13/36/11
f 17/33/12 16/32/12 1/40/12 25/13/12 26/12/12 3/35/12
f 22/7/13 32/4/13 31/3/13 15/34/13 23/8/13
f 22/7/14 20/6/14 11/29/14 4/28/14 30/5/14 32/4/14
f 8/21/15 5/41/15 29/1/15 30/5/15 4/28/15 9/18/15
f 14/42/16 15/34/16 31/3/16 28/2/16 18/16/16 19/15/16
f 8/21/17 7/20/17 36/43/17 35/44/17 5/41/17
f 5/45/18 35/22/18 38/27/18 18/46/18 28/2/18 29/1/18
f 12/47/19 2/48/19 34/49/19 36/43/19 7/20/19 6/19/19 10/30/19
f 14/42/20 19/15/20 37/14/20 33/50/20 1/51/20 16/52/20
f 1/53/21 33/25/21 34/24/21 2/54/21 27/55/21 25/56/21
